<?xml version="1.0" encoding="utf-8"?>
<!-- Generator: Adobe Illustrator 17.0.0, SVG Export Plug-In . SVG Version: 6.00 Build 0)  -->
<!DOCTYPE svg PUBLIC "-//W3C//DTD SVG 1.1//EN" "http://www.w3.org/Graphics/SVG/1.1/DTD/svg11.dtd">
<svg version="1.1" id="Layer_1" xmlns="http://www.w3.org/2000/svg" xmlns:xlink="http://www.w3.org/1999/xlink" x="0px" y="0px"
	 width="293.77px" height="343.84px" viewBox="0 0 293.77 343.84" style="enable-background:new 0 0 293.77 343.84;"
	 xml:space="preserve">
<style type="text/css">
	.st0{fill:#231F20;}
	.st1{fill:#FFFFFF;}
</style>
<g>
	<g>
		<path d="M34.46,271.5c0.31,0.49,0.62,1.13,0.92,1.91c0.3,0.79,0.45,1.53,0.45,2.23c0,1.33-0.32,2.53-0.97,3.61
			c-0.65,1.08-1.48,2-2.49,2.75c-1.01,0.75-2.14,1.34-3.38,1.75c-1.24,0.42-2.47,0.63-3.69,0.63c-1.05,0-2.02-0.2-2.91-0.6
			c-0.89-0.4-1.66-0.94-2.3-1.62c-0.65-0.68-1.15-1.48-1.52-2.38c-0.37-0.91-0.55-1.87-0.55-2.88c0-1.85,0.48-3.49,1.44-4.92
			c0.96-1.43,2.24-2.68,3.85-3.74c1.61-1.06,3.47-1.96,5.6-2.7c2.13-0.73,4.37-1.35,6.73-1.86c2.36-0.51,4.75-0.9,7.17-1.18
			c2.43-0.28,4.74-0.49,6.94-0.63c2.2-0.14,4.22-0.23,6.07-0.26c1.85-0.03,3.37-0.05,4.56-0.05c0.28,0,0.66-0.05,1.15-0.16
			c0.49-0.1,0.99-0.21,1.52-0.31c0.52-0.11,1.02-0.21,1.49-0.31c0.47-0.11,0.85-0.16,1.13-0.16c1.19,0,1.78,0.31,1.78,0.94
			c0,0.42-0.19,0.73-0.58,0.94s-0.91,0.31-1.57,0.31c-0.59,0-1.23-0.05-1.91-0.16c-0.68-0.11-1.35-0.19-2.02-0.26
			c-0.49,0.07-1.19,0.29-2.09,0.65c-0.91,0.37-1.92,0.94-3.04,1.73c-1.12,0.78-2.29,1.82-3.51,3.09c-1.22,1.28-2.39,2.84-3.51,4.69
			c-3.77,6.28-6.7,11.26-8.77,14.93c-2.08,3.66-3.46,6.09-4.16,7.28c3.25-0.7,6.14-1.98,8.69-3.85c2.55-1.87,4.87-4.16,6.97-6.89
			l0.47,0.21c-0.77,1.05-1.68,2.14-2.72,3.27c-1.05,1.13-2.24,2.22-3.59,3.25c-1.34,1.03-2.86,1.96-4.56,2.8
			c-1.69,0.84-3.57,1.48-5.63,1.94c-1.57,2.62-3.32,5.05-5.24,7.28c-1.92,2.23-4,4.16-6.23,5.79c-2.23,1.62-4.62,2.89-7.15,3.8
			c-2.53,0.91-5.19,1.36-7.99,1.36c-1.08,0-2.18-0.12-3.3-0.37c-1.12-0.24-2.12-0.64-3.01-1.18c-0.89-0.54-1.61-1.25-2.17-2.12
			C0.28,309.16,0,308.1,0,306.84c0-1.43,0.42-2.64,1.26-3.64c0.84-0.99,2-1.82,3.48-2.49s3.26-1.21,5.32-1.65
			c2.06-0.44,4.29-0.83,6.7-1.18c2.58-0.38,4.87-0.7,6.86-0.94c1.99-0.24,3.51-0.49,4.56-0.73c1.05-1.68,2.05-3.38,3.01-5.11
			c0.96-1.73,1.93-3.47,2.91-5.24c0.98-1.76,1.99-3.51,3.04-5.24c1.05-1.73,2.15-3.39,3.3-5c2.97-4.01,6.08-7.07,9.35-9.16
			c3.26-2.1,6.68-3.49,10.24-4.19v-0.1c-0.56,0-1.51,0.01-2.85,0.03c-1.34,0.02-2.92,0.09-4.74,0.21c-1.82,0.12-3.78,0.31-5.89,0.55
			c-2.11,0.24-4.23,0.6-6.36,1.07c-2.13,0.47-4.19,1.07-6.18,1.78c-1.99,0.72-3.74,1.6-5.26,2.64c-1.52,1.05-2.74,2.28-3.67,3.69
			c-0.93,1.41-1.39,3.05-1.39,4.9c0,1.64,0.49,2.91,1.47,3.8c0.98,0.89,2.25,1.34,3.82,1.34c0.8,0,1.58-0.18,2.33-0.55
			c0.75-0.37,1.41-0.86,1.99-1.47c0.58-0.61,1.04-1.32,1.39-2.15c0.35-0.82,0.52-1.67,0.52-2.54c0-1.05-0.38-2.25-1.15-3.61
			L34.46,271.5z M7.12,311.61c0.98,0.98,2.27,1.47,3.87,1.47c2.1,0,3.97-0.56,5.63-1.67c1.66-1.12,3.16-2.5,4.5-4.14
			c1.34-1.64,2.57-3.4,3.67-5.26c1.1-1.87,2.14-3.55,3.12-5.05c-1.29,0.21-2.58,0.4-3.88,0.58c-1.29,0.18-2.58,0.37-3.85,0.58
			c-1.27,0.21-2.56,0.46-3.85,0.76c-1.29,0.3-2.58,0.69-3.88,1.18c-0.84,0.31-1.66,0.71-2.46,1.18c-0.8,0.47-1.53,1.03-2.17,1.68
			c-0.65,0.65-1.17,1.38-1.57,2.2c-0.4,0.82-0.6,1.72-0.6,2.7C5.66,309.36,6.14,310.63,7.12,311.61z"/>
		<path d="M74.83,279.14c-0.38,0.56-0.88,1.27-1.49,2.15s-1.27,1.82-1.96,2.83c-0.7,1.01-1.4,2.07-2.1,3.17
			c-0.7,1.1-1.34,2.17-1.91,3.22c-0.58,1.05-1.05,2.02-1.41,2.93c-0.37,0.91-0.55,1.68-0.55,2.3c0,1.01,0.4,1.52,1.2,1.52
			c0.73,0,1.6-0.35,2.59-1.05s2.09-1.63,3.27-2.8c1.19-1.17,2.43-2.54,3.72-4.11c1.29-1.57,2.6-3.23,3.93-4.98l0.31,0.21
			c-1.4,1.78-2.76,3.52-4.08,5.21c-1.33,1.69-2.64,3.19-3.95,4.5c-1.31,1.31-2.62,2.37-3.93,3.17c-1.31,0.8-2.64,1.2-4.01,1.2
			c-1.19,0-2.09-0.19-2.72-0.58c-0.63-0.38-1.09-0.86-1.39-1.44c-0.3-0.58-0.47-1.18-0.52-1.81c-0.05-0.63-0.08-1.19-0.08-1.67
			l-0.16-0.11c-0.56,0.66-1.16,1.33-1.81,1.99c-0.65,0.66-1.35,1.27-2.12,1.81s-1.57,0.98-2.41,1.31c-0.84,0.33-1.73,0.5-2.67,0.5
			c-1.68,0-2.94-0.5-3.8-1.49c-0.86-0.99-1.28-2.59-1.28-4.79c0-1.54,0.38-3.12,1.15-4.74c0.77-1.62,1.86-3.11,3.27-4.45
			c1.41-1.34,3.1-2.45,5.05-3.32c1.95-0.87,4.1-1.31,6.44-1.31c1.36,0,2.4,0.34,3.12,1.02c0.72,0.68,1.18,1.53,1.39,2.54h0.1
			l1.36-2.72L74.83,279.14z M56.87,294.9c1.15-0.94,2.29-2.15,3.4-3.61c1.12-1.47,2.08-3.06,2.88-4.79c0.8-1.73,1.2-3.38,1.2-4.95
			c0-0.8-0.24-1.4-0.71-1.81c-0.47-0.4-1-0.6-1.6-0.6c-0.73,0-1.48,0.24-2.23,0.73c-0.75,0.49-1.48,1.14-2.2,1.96
			c-0.72,0.82-1.4,1.75-2.04,2.78c-0.65,1.03-1.21,2.08-1.7,3.14c-0.49,1.06-0.87,2.12-1.15,3.17c-0.28,1.05-0.42,1.97-0.42,2.78
			c0,0.59,0.11,1.18,0.34,1.75c0.23,0.58,0.69,0.86,1.39,0.86C54.78,296.32,55.72,295.85,56.87,294.9z"/>
		<path d="M69.18,297.99l10.84-18.54l7.44-0.31c-2.51,3.49-4.92,7.05-7.23,10.68l0.1,0.11c0.91-1.15,1.92-2.39,3.04-3.72
			c1.12-1.33,2.29-2.56,3.54-3.69c1.24-1.13,2.51-2.09,3.82-2.85c1.31-0.77,2.61-1.15,3.9-1.15c1.33,0,2.44,0.34,3.33,1.02
			s1.34,1.72,1.34,3.12c0,1.15-0.36,2.34-1.07,3.56c-0.72,1.22-1.51,2.42-2.38,3.59c-0.87,1.17-1.67,2.29-2.38,3.35
			c-0.72,1.07-1.07,2-1.07,2.8c0,0.35,0.1,0.66,0.29,0.92c0.19,0.26,0.5,0.39,0.92,0.39c0.77,0,1.64-0.36,2.62-1.07
			s1.99-1.6,3.04-2.64c0.8-0.8,1.61-1.67,2.41-2.59c0.8-0.93,1.55-1.82,2.25-2.67c0.7-0.86,1.33-1.64,1.89-2.36
			c0.56-0.72,1-1.28,1.31-1.7l0.47,0.26c-1.19,1.57-2.45,3.19-3.8,4.87c-1.34,1.68-2.7,3.21-4.06,4.61
			c-1.43,1.47-2.82,2.61-4.16,3.43c-1.34,0.82-2.72,1.23-4.11,1.23c-1.57,0-2.75-0.46-3.54-1.39c-0.79-0.93-1.18-2.12-1.18-3.59
			c0-1.26,0.34-2.45,1.02-3.59c0.68-1.13,1.44-2.2,2.28-3.19c0.84-1,1.6-1.91,2.28-2.75c0.68-0.84,1.02-1.62,1.02-2.36
			c0-0.98-0.47-1.47-1.41-1.47c-0.63,0-1.4,0.32-2.3,0.97c-0.91,0.65-1.89,1.49-2.93,2.54c-1.05,1.05-2.11,2.22-3.19,3.51
			c-1.08,1.29-2.1,2.58-3.06,3.88c-0.96,1.29-1.8,2.51-2.51,3.67c-0.72,1.15-1.25,2.1-1.6,2.83L69.18,297.99z"/>
		<path d="M128.51,284.54c-0.8,1.15-1.7,2.31-2.7,3.48c-0.99,1.17-2.12,2.37-3.38,3.59c-2.41,2.3-4.75,4.05-7.02,5.24
			c-2.27,1.19-4.8,1.78-7.59,1.78c-2.41,0-4.24-0.56-5.5-1.67c-1.26-1.12-1.89-2.74-1.89-4.87c0-1.85,0.52-3.6,1.57-5.24
			c1.05-1.64,2.37-3.07,3.95-4.29c1.59-1.22,3.32-2.2,5.18-2.93c1.87-0.73,3.64-1.1,5.32-1.1s3.05,0.27,4.14,0.81
			c1.08,0.54,1.62,1.42,1.62,2.64c0,1.22-0.59,2.29-1.78,3.19c-1.19,0.91-2.59,1.68-4.22,2.33c-1.62,0.65-3.26,1.17-4.9,1.57
			c-1.64,0.4-2.93,0.71-3.88,0.92c-0.07,0.35-0.12,0.7-0.16,1.05c-0.04,0.35-0.05,0.7-0.05,1.05c0,0.63,0.07,1.25,0.21,1.86
			c0.14,0.61,0.37,1.14,0.71,1.6c0.33,0.45,0.77,0.82,1.31,1.1c0.54,0.28,1.21,0.42,2.02,0.42c1.64,0,3.4-0.6,5.29-1.81
			c1.89-1.2,3.79-2.72,5.71-4.53c1.22-1.19,2.29-2.34,3.22-3.46c0.93-1.12,1.7-2.13,2.33-3.04L128.51,284.54z M115.52,279.14
			c-0.77,0-1.6,0.39-2.49,1.18c-0.89,0.78-1.71,1.73-2.46,2.83c-0.75,1.1-1.41,2.23-1.96,3.38c-0.56,1.15-0.91,2.11-1.05,2.88
			c1.47-0.31,2.78-0.79,3.95-1.44c1.17-0.65,2.16-1.37,2.99-2.17c0.82-0.8,1.44-1.66,1.86-2.57c0.42-0.91,0.63-1.78,0.63-2.62
			C116.99,279.63,116.5,279.14,115.52,279.14z"/>
		<path d="M193.18,260.6c-1.61,1.57-3.24,3.3-4.9,5.18c-1.66,1.88-3.26,3.84-4.82,5.87c-1.55,2.02-3.01,4.09-4.37,6.21
			c-1.36,2.11-2.55,4.19-3.56,6.23c-1.01,2.04-1.82,4.01-2.41,5.89c-0.59,1.89-0.89,3.63-0.89,5.24c0,0.94,0.19,1.61,0.58,1.99
			c0.38,0.39,0.8,0.58,1.26,0.58c1.22,0,2.51-0.45,3.87-1.36s2.72-2.04,4.08-3.4c1.36-1.36,2.69-2.83,3.98-4.4
			c1.29-1.57,2.46-3.02,3.51-4.35l0.37,0.37c-1.19,1.5-2.37,2.96-3.53,4.37c-1.17,1.41-2.44,2.82-3.8,4.22
			c-0.7,0.73-1.44,1.44-2.23,2.12c-0.78,0.68-1.62,1.28-2.51,1.78c-0.89,0.51-1.84,0.92-2.85,1.23c-1.01,0.31-2.11,0.47-3.3,0.47
			c-1.85,0-3.32-0.44-4.4-1.31c-1.08-0.87-1.62-2.22-1.62-4.03c0-1.05,0.11-2.08,0.34-3.09c0.23-1.01,0.52-2.01,0.89-2.99
			c0.37-0.98,0.78-1.95,1.23-2.91c0.45-0.96,0.91-1.88,1.36-2.75h-7.02c-1.61,1.71-3.32,3.54-5.13,5.5
			c-1.82,1.95-3.74,3.76-5.76,5.42c-2.02,1.66-4.16,3.03-6.39,4.11c-2.24,1.08-4.57,1.62-7.02,1.62c-2.62,0-4.64-0.58-6.07-1.75
			c-1.43-1.17-2.15-2.68-2.15-4.53c0-0.45,0.07-0.92,0.21-1.39c0.14-0.47,0.37-0.91,0.68-1.31c0.31-0.4,0.71-0.73,1.18-0.99
			c0.47-0.26,1.04-0.39,1.7-0.39c0.7,0,1.38,0.23,2.04,0.68c0.66,0.45,0.99,1.24,0.99,2.36c0,0.84-0.27,1.48-0.81,1.94
			c-0.54,0.45-1.11,0.68-1.7,0.68c0.07,1.12,0.58,1.96,1.52,2.51c0.94,0.56,2.11,0.84,3.51,0.84c2.06,0,4.15-0.54,6.28-1.62
			c2.13-1.08,4.19-2.43,6.18-4.06c1.99-1.62,3.88-3.37,5.68-5.24c1.8-1.87,3.39-3.59,4.79-5.16c0.7-0.77,1.6-1.75,2.7-2.93
			c1.1-1.19,2.37-2.47,3.82-3.85c1.45-1.38,3.05-2.79,4.82-4.24c1.76-1.45,3.65-2.83,5.66-4.14s4.14-2.49,6.39-3.54
			c2.25-1.05,4.6-1.85,7.04-2.41L193.18,260.6z M169.77,281.13c1.78-3.18,3.88-6.18,6.31-9.01c2.43-2.83,4.98-5.5,7.67-8.01
			l-0.11-0.1c-1.92,0.91-3.83,2.04-5.73,3.4c-1.9,1.36-3.74,2.82-5.5,4.37c-1.76,1.55-3.45,3.14-5.05,4.77
			c-1.61,1.62-3.09,3.15-4.45,4.58H169.77z"/>
		<path d="M196.74,278.72l-1.83,2.83c-1.68,2.51-3.02,4.56-4.03,6.15c-1.01,1.59-1.8,2.88-2.36,3.88c-0.56,1-0.93,1.76-1.1,2.3
			c-0.18,0.54-0.26,1.02-0.26,1.44c0,0.45,0.13,0.82,0.39,1.1c0.26,0.28,0.6,0.42,1.02,0.42c0.7,0,1.6-0.39,2.7-1.18
			c1.1-0.79,2.3-1.93,3.61-3.43c1.31-1.5,2.7-3.33,4.16-5.5c1.47-2.16,2.91-4.63,4.35-7.38l7.59-0.21
			c-0.31,0.52-0.76,1.22-1.34,2.09c-0.58,0.87-1.22,1.83-1.94,2.85c-0.72,1.03-1.45,2.12-2.2,3.27c-0.75,1.15-1.43,2.26-2.04,3.33
			c-0.61,1.06-1.11,2.06-1.49,2.99c-0.39,0.93-0.58,1.68-0.58,2.28c0,0.49,0.11,0.83,0.31,1.02c0.21,0.19,0.49,0.29,0.84,0.29
			c0.59,0,1.28-0.24,2.07-0.73c0.79-0.49,1.62-1.13,2.51-1.91c0.89-0.78,1.8-1.67,2.72-2.64c0.93-0.98,1.8-1.95,2.62-2.93
			c0.82-0.98,1.58-1.9,2.28-2.78c0.7-0.87,1.26-1.59,1.68-2.15l0.47,0.42c-0.59,0.7-1.27,1.53-2.04,2.49
			c-0.77,0.96-1.6,1.96-2.49,3.01c-0.89,1.05-1.83,2.09-2.83,3.12c-1,1.03-2.02,1.95-3.06,2.75c-1.05,0.8-2.1,1.46-3.17,1.96
			s-2.12,0.76-3.17,0.76c-0.77,0-1.43-0.12-1.99-0.37c-0.56-0.24-1.01-0.58-1.36-1c-0.35-0.42-0.61-0.9-0.79-1.44
			c-0.18-0.54-0.26-1.09-0.26-1.65c0-0.42,0.05-0.84,0.16-1.26c0.11-0.42,0.21-0.77,0.31-1.05l-0.1-0.1
			c-0.77,0.87-1.55,1.72-2.36,2.54c-0.8,0.82-1.64,1.55-2.51,2.2c-0.87,0.65-1.76,1.16-2.67,1.55s-1.83,0.58-2.78,0.58
			c-1.47,0-2.55-0.43-3.25-1.28c-0.7-0.86-1.05-1.94-1.05-3.27c0-0.7,0.16-1.49,0.47-2.38c0.31-0.89,0.72-1.82,1.21-2.8
			c0.49-0.98,1.04-1.97,1.65-2.98c0.61-1.01,1.2-1.96,1.75-2.85c0.56-0.89,1.07-1.69,1.54-2.41c0.47-0.71,0.83-1.28,1.07-1.7
			L196.74,278.72z"/>
		<path d="M237.06,284.48c-1.29,1.92-2.66,3.74-4.11,5.45c-1.45,1.71-3.06,3.21-4.84,4.5s-3.77,2.31-5.97,3.06
			c-2.2,0.75-4.71,1.13-7.54,1.13c-1.05,0-2.03-0.1-2.96-0.31c-0.93-0.21-1.72-0.54-2.38-1c-0.66-0.45-1.19-1.04-1.57-1.75
			c-0.39-0.71-0.58-1.56-0.58-2.54c0-1.29,0.41-2.31,1.23-3.06c0.82-0.75,1.77-1.13,2.85-1.13c0.73,0,1.36,0.21,1.89,0.63
			c0.52,0.42,0.78,1.05,0.78,1.88c0,0.77-0.23,1.35-0.68,1.73c-0.45,0.38-0.96,0.58-1.52,0.58c-0.42,0-0.77-0.05-1.05-0.16
			c-0.18,0.28-0.26,0.61-0.26,1c0,1.12,0.3,1.98,0.89,2.59c0.59,0.61,1.47,0.92,2.62,0.92c1.5,0,2.62-0.44,3.35-1.31
			c0.73-0.87,1.1-1.92,1.1-3.14c0-0.73-0.23-1.45-0.68-2.15c-0.45-0.7-0.95-1.4-1.49-2.12c-0.54-0.71-1.04-1.43-1.49-2.15
			c-0.45-0.72-0.68-1.44-0.68-2.17c0-0.84,0.19-1.64,0.58-2.41c0.38-0.77,0.95-1.46,1.7-2.07c0.75-0.61,1.67-1.09,2.75-1.44
			c1.08-0.35,2.32-0.52,3.72-0.52c2.02,0,3.67,0.34,4.95,1.02c1.27,0.68,1.91,1.67,1.91,2.96c0,0.98-0.33,1.77-1,2.38
			c-0.66,0.61-1.45,0.92-2.36,0.92c-0.8,0-1.55-0.21-2.25-0.63c0.24-0.38,0.44-0.79,0.58-1.2c0.14-0.42,0.21-0.89,0.21-1.41
			c0-0.87-0.2-1.66-0.6-2.36c-0.4-0.7-1.06-1.05-1.96-1.05c-0.8,0-1.43,0.28-1.88,0.84c-0.46,0.56-0.68,1.29-0.68,2.2
			c0,0.87,0.26,1.68,0.78,2.44c0.52,0.75,1.09,1.49,1.7,2.22c0.61,0.73,1.18,1.5,1.7,2.3c0.52,0.8,0.79,1.71,0.79,2.72
			c0,1.19-0.27,2.19-0.81,3.01c-0.54,0.82-1.37,1.55-2.49,2.17l0.11,0.11c1.5-0.42,2.98-1.07,4.43-1.96
			c1.45-0.89,2.84-1.93,4.16-3.12c1.33-1.19,2.56-2.47,3.69-3.85c1.13-1.38,2.14-2.77,3.01-4.16L237.06,284.48z"/>
		<path d="M231.88,280.4l0.37-0.84h4.35l4.45-7.59l7.28-0.26l-4.71,7.86h7.17l-0.42,0.84h-7.23c-0.49,0.84-1.16,1.94-2.02,3.3
			c-0.86,1.36-1.7,2.78-2.54,4.24c-0.84,1.47-1.57,2.88-2.2,4.24c-0.63,1.36-0.94,2.48-0.94,3.35c0,0.59,0.16,1.03,0.5,1.31
			c0.33,0.28,0.79,0.42,1.39,0.42c0.91,0,1.87-0.25,2.88-0.76c1.01-0.51,2.03-1.16,3.06-1.96c1.03-0.8,2.02-1.7,2.98-2.7
			c0.96-1,1.87-1.98,2.72-2.96c0.86-0.98,1.63-1.89,2.33-2.75c0.7-0.86,1.26-1.55,1.68-2.07l0.42,0.21
			c-1.19,1.4-2.44,2.93-3.77,4.61c-1.33,1.68-2.76,3.24-4.29,4.69c-1.54,1.45-3.19,2.65-4.98,3.61c-1.78,0.96-3.72,1.44-5.81,1.44
			c-1.61,0-2.8-0.43-3.59-1.28c-0.78-0.86-1.18-1.96-1.18-3.32c0-0.7,0.1-1.39,0.29-2.07c0.19-0.68,0.53-1.52,1.02-2.51
			c0.49-0.99,1.13-2.21,1.94-3.64c0.8-1.43,1.83-3.23,3.09-5.39H231.88z"/>
		<path d="M274.3,284.54c-0.8,1.15-1.7,2.31-2.7,3.48c-0.99,1.17-2.12,2.37-3.38,3.59c-2.41,2.3-4.75,4.05-7.02,5.24
			c-2.27,1.19-4.8,1.78-7.59,1.78c-2.41,0-4.24-0.56-5.5-1.67s-1.89-2.74-1.89-4.87c0-1.85,0.52-3.6,1.57-5.24
			c1.05-1.64,2.37-3.07,3.95-4.29c1.59-1.22,3.32-2.2,5.18-2.93c1.87-0.73,3.64-1.1,5.32-1.1c1.68,0,3.06,0.27,4.14,0.81
			c1.08,0.54,1.62,1.42,1.62,2.64c0,1.22-0.59,2.29-1.78,3.19c-1.19,0.91-2.59,1.68-4.22,2.33c-1.62,0.65-3.26,1.17-4.9,1.57
			c-1.64,0.4-2.93,0.71-3.88,0.92c-0.07,0.35-0.12,0.7-0.16,1.05c-0.04,0.35-0.05,0.7-0.05,1.05c0,0.63,0.07,1.25,0.21,1.86
			c0.14,0.61,0.38,1.14,0.71,1.6c0.33,0.45,0.77,0.82,1.31,1.1c0.54,0.28,1.21,0.42,2.02,0.42c1.64,0,3.4-0.6,5.29-1.81
			c1.89-1.2,3.79-2.72,5.71-4.53c1.22-1.19,2.29-2.34,3.22-3.46c0.93-1.12,1.7-2.13,2.33-3.04L274.3,284.54z M261.31,279.14
			c-0.77,0-1.6,0.39-2.49,1.18c-0.89,0.78-1.71,1.73-2.46,2.83c-0.75,1.1-1.41,2.23-1.96,3.38c-0.56,1.15-0.91,2.11-1.05,2.88
			c1.47-0.31,2.78-0.79,3.95-1.44c1.17-0.65,2.16-1.37,2.99-2.17c0.82-0.8,1.44-1.66,1.86-2.57c0.42-0.91,0.63-1.78,0.63-2.62
			C262.78,279.63,262.29,279.14,261.31,279.14z"/>
		<path d="M293.67,292.68c-0.28,0.29-0.56,0.59-0.83,0.87c-1.05,1.05-2.06,1.93-3.04,2.64c-0.98,0.72-1.85,1.07-2.62,1.07
			c-0.42,0-0.73-0.13-0.92-0.39c-0.19-0.26-0.29-0.57-0.29-0.92c0-0.8,0.36-1.74,1.07-2.8c0.72-1.06,1.51-2.18,2.38-3.35
			c0.87-1.17,1.67-2.37,2.38-3.59c0.71-1.22,1.07-2.41,1.07-3.56c0-1.4-0.45-2.44-1.34-3.12s-2-1.02-3.33-1.02
			c-1.29,0-2.59,0.39-3.9,1.15c-1.31,0.77-2.58,1.72-3.82,2.85c-1.24,1.13-2.42,2.37-3.54,3.69c-1.12,1.33-2.13,2.57-3.04,3.72
			l-0.11-0.11c2.3-3.63,4.71-7.19,7.23-10.68l-7.44,0.31l-10.84,18.54l7.12-0.31c0.35-0.73,0.88-1.67,1.6-2.83
			c0.71-1.15,1.55-2.37,2.51-3.67c0.96-1.29,1.98-2.58,3.06-3.88c1.08-1.29,2.15-2.46,3.19-3.51c1.05-1.05,2.02-1.89,2.93-2.54
			c0.91-0.65,1.67-0.97,2.3-0.97c0.94,0,1.41,0.49,1.41,1.47c0,0.73-0.34,1.52-1.02,2.36c-0.68,0.84-1.44,1.75-2.28,2.75
			c-0.84,0.99-1.6,2.06-2.28,3.19c-0.68,1.13-1.02,2.33-1.02,3.59c0,1.47,0.39,2.66,1.18,3.59c0.78,0.92,1.96,1.39,3.54,1.39
			c1.4,0,2.77-0.41,4.11-1.23c1.34-0.82,2.73-1.96,4.16-3.43c0.16-0.16,0.31-0.34,0.46-0.5
			C293.73,293.2,293.69,292.94,293.67,292.68z"/>
	</g>
	<g>
		<path d="M107.34,322.16c-0.77-0.04-1.53,0.01-2.28,0.15c-0.76,0.14-1.45,0.45-2.08,0.94c0.98,0.47,1.79,1.07,2.43,1.79
			c0.64,0.72,0.96,1.67,0.96,2.85c0,0.88-0.23,1.63-0.69,2.23c-0.46,0.61-1.04,1.11-1.72,1.5c-0.69,0.39-1.43,0.69-2.22,0.88
			c-0.8,0.2-1.53,0.31-2.19,0.35v0.06c1.79,0.04,3.16,0.41,4.11,1.12c0.95,0.71,1.43,1.74,1.43,3.1c0,0.98-0.28,1.88-0.83,2.7
			c-0.55,0.82-1.26,1.52-2.14,2.11c-0.87,0.59-1.85,1.05-2.93,1.39c-1.08,0.33-2.16,0.5-3.24,0.5c-0.41,0-0.84-0.05-1.3-0.15
			c-0.45-0.1-0.86-0.26-1.22-0.49c-0.36-0.23-0.66-0.52-0.9-0.87c-0.23-0.35-0.35-0.78-0.35-1.3c0-0.67,0.2-1.2,0.6-1.61
			c0.4-0.4,0.94-0.6,1.61-0.6c0.43,0,0.81,0.09,1.15,0.27c0.33,0.18,0.59,0.37,0.77,0.59c-0.33,0.29-0.65,0.66-0.96,1.09
			c-0.3,0.43-0.46,0.89-0.46,1.38c0,0.39,0.12,0.69,0.37,0.9c0.25,0.21,0.57,0.31,0.99,0.31c0.61,0,1.2-0.2,1.78-0.6
			c0.58-0.4,1.09-0.92,1.55-1.55c0.45-0.63,0.81-1.33,1.09-2.12c0.27-0.78,0.41-1.56,0.41-2.33c0-0.75-0.12-1.36-0.37-1.86
			s-0.57-0.87-0.99-1.15s-0.87-0.45-1.38-0.53c-0.51-0.08-1.03-0.07-1.56,0.03l0.12-0.27c1.85-0.29,3.3-0.95,4.36-1.96
			c1.06-1.01,1.59-2.33,1.59-3.96c0-0.55-0.08-1.05-0.25-1.52c-0.17-0.46-0.45-0.89-0.84-1.28c-1.18,1.18-2.19,2.48-3.03,3.9
			c-0.84,1.42-1.65,2.85-2.43,4.29c-0.78,1.43-1.56,2.82-2.36,4.15c-0.8,1.34-1.73,2.52-2.8,3.55c-1.07,1.03-2.34,1.86-3.8,2.49
			c-1.46,0.63-3.25,0.94-5.35,0.94c-0.65,0-1.27-0.06-1.87-0.19c-0.6-0.13-1.13-0.33-1.61-0.6s-0.84-0.63-1.12-1.08
			c-0.27-0.44-0.41-0.99-0.41-1.63c0-0.57,0.18-1.08,0.54-1.53c0.36-0.45,0.88-0.68,1.55-0.68c0.57,0,1.03,0.16,1.38,0.47
			c0.35,0.31,0.53,0.75,0.53,1.3c0,0.77-0.4,1.3-1.21,1.59c0.08,0.73,0.32,1.24,0.72,1.55c0.4,0.3,0.92,0.46,1.55,0.46
			c1,0,1.9-0.23,2.7-0.68c0.8-0.45,1.53-1.06,2.21-1.83c0.68-0.77,1.32-1.65,1.93-2.65c0.61-1,1.22-2.06,1.83-3.17
			c0.61-1.11,1.24-2.23,1.89-3.37c0.65-1.14,1.36-2.22,2.14-3.26c0.78-1.03,1.63-1.97,2.56-2.83c0.93-0.86,1.99-1.56,3.17-2.11
			c-0.45-0.22-1.08-0.42-1.89-0.62c-0.81-0.2-1.82-0.3-3.03-0.3c-1.73,0-3.37,0.27-4.92,0.81c-1.55,0.54-2.9,1.29-4.05,2.24
			c-1.15,0.95-2.06,2.07-2.74,3.36c-0.68,1.29-1.02,2.68-1.02,4.17c0,0.49,0.06,0.95,0.19,1.39c0.13,0.43,0.31,0.81,0.56,1.13
			c0.25,0.32,0.56,0.58,0.96,0.77c0.39,0.19,0.86,0.28,1.38,0.28c0.73,0,1.36-0.21,1.89-0.62c0.53-0.41,0.97-0.93,1.33-1.55
			c0.35-0.62,0.62-1.3,0.8-2.03c0.18-0.74,0.26-1.43,0.26-2.08c0-0.57-0.1-1.18-0.29-1.83c-0.2-0.65-0.43-1.24-0.71-1.77l0.29-0.12
			c0.27,0.57,0.52,1.13,0.74,1.69c0.22,0.56,0.32,1.28,0.32,2.17c0,0.94-0.14,1.85-0.43,2.72s-0.71,1.64-1.27,2.31
			c-0.56,0.67-1.25,1.2-2.06,1.6c-0.82,0.4-1.76,0.6-2.84,0.6c-0.69,0-1.31-0.12-1.87-0.37c-0.56-0.25-1.04-0.58-1.43-1.02
			c-0.39-0.43-0.7-0.93-0.91-1.5c-0.22-0.57-0.32-1.19-0.32-1.86c0-1.1,0.24-2.14,0.71-3.11c0.47-0.97,1.11-1.86,1.91-2.67
			c0.8-0.81,1.74-1.52,2.81-2.15c1.07-0.63,2.2-1.16,3.4-1.6c1.2-0.44,2.43-0.78,3.7-1c1.27-0.23,2.49-0.34,3.67-0.34
			c1.22,0,2.38,0.06,3.48,0.19c1.1,0.13,1.99,0.29,2.68,0.49c0.39-0.16,0.8-0.29,1.21-0.41c0.41-0.12,0.84-0.22,1.3-0.29
			c0.92-0.18,1.95-0.27,3.09-0.27V322.16z"/>
		<path d="M124.98,335.79c-0.08,0.08-0.21,0.21-0.38,0.4s-0.4,0.37-0.66,0.56c-0.27,0.19-0.56,0.35-0.9,0.5
			c-0.33,0.15-0.7,0.22-1.09,0.22c-0.51,0-0.97-0.12-1.37-0.37c-0.4-0.24-0.77-0.57-1.1-0.99h-0.06c0,1.02-0.24,1.99-0.72,2.92
			c-0.48,0.92-1.12,1.73-1.91,2.43c-0.8,0.7-1.7,1.25-2.72,1.65c-1.02,0.4-2.08,0.6-3.18,0.6c-0.65,0-1.28-0.07-1.89-0.21
			c-0.61-0.14-1.15-0.36-1.62-0.68c-0.47-0.31-0.85-0.73-1.13-1.24c-0.28-0.51-0.43-1.14-0.43-1.89c0-1.12,0.27-2.13,0.8-3.03
			c0.53-0.9,1.21-1.67,2.05-2.31c0.83-0.64,1.78-1.12,2.83-1.46c1.05-0.33,2.09-0.5,3.11-0.5c0.84,0,1.54,0.12,2.09,0.35
			c0.55,0.24,1.02,0.53,1.4,0.87c0.38,0.34,0.71,0.72,0.97,1.13c0.27,0.41,0.53,0.79,0.8,1.13c0.27,0.35,0.56,0.63,0.88,0.87
			c0.32,0.24,0.73,0.35,1.22,0.35c0.45,0,0.92-0.13,1.4-0.4c0.48-0.27,0.95-0.65,1.4-1.16L124.98,335.79z M113.63,333.25
			c-0.48,0.32-0.95,0.75-1.4,1.27c-0.45,0.52-0.87,1.11-1.27,1.77c-0.39,0.66-0.74,1.32-1.03,1.99c-0.29,0.67-0.53,1.32-0.69,1.94
			c-0.17,0.63-0.25,1.18-0.25,1.65c0,0.45,0.1,0.82,0.31,1.09s0.5,0.41,0.87,0.41c0.47,0,0.95-0.16,1.43-0.49
			c0.48-0.32,0.95-0.75,1.4-1.27c0.45-0.52,0.87-1.11,1.27-1.77c0.39-0.66,0.74-1.32,1.03-1.99c0.29-0.67,0.52-1.32,0.69-1.96
			c0.17-0.64,0.25-1.18,0.25-1.63c0-0.45-0.1-0.82-0.31-1.09c-0.21-0.27-0.5-0.41-0.87-0.41
			C114.58,332.76,114.11,332.92,113.63,333.25z"/>
		<path d="M140.06,335.79c-0.08,0.08-0.21,0.21-0.38,0.4s-0.4,0.37-0.66,0.56c-0.27,0.19-0.56,0.35-0.9,0.5
			c-0.33,0.15-0.7,0.22-1.09,0.22c-0.51,0-0.97-0.12-1.37-0.37c-0.4-0.24-0.77-0.57-1.1-0.99h-0.06c0,1.02-0.24,1.99-0.72,2.92
			c-0.48,0.92-1.12,1.73-1.91,2.43c-0.8,0.7-1.7,1.25-2.72,1.65c-1.02,0.4-2.08,0.6-3.18,0.6c-0.65,0-1.28-0.07-1.89-0.21
			c-0.61-0.14-1.15-0.36-1.62-0.68c-0.47-0.31-0.85-0.73-1.13-1.24c-0.28-0.51-0.43-1.14-0.43-1.89c0-1.12,0.27-2.13,0.8-3.03
			c0.53-0.9,1.21-1.67,2.05-2.31c0.83-0.64,1.78-1.12,2.83-1.46c1.05-0.33,2.09-0.5,3.11-0.5c0.84,0,1.54,0.12,2.09,0.35
			c0.55,0.24,1.02,0.53,1.4,0.87c0.38,0.34,0.71,0.72,0.97,1.13s0.53,0.79,0.8,1.13c0.27,0.35,0.56,0.63,0.88,0.87
			c0.32,0.24,0.73,0.35,1.22,0.35c0.45,0,0.92-0.13,1.4-0.4c0.48-0.27,0.95-0.65,1.4-1.16L140.06,335.79z M128.71,333.25
			c-0.48,0.32-0.95,0.75-1.4,1.27c-0.45,0.52-0.87,1.11-1.27,1.77c-0.39,0.66-0.74,1.32-1.03,1.99c-0.29,0.67-0.53,1.32-0.69,1.94
			c-0.17,0.63-0.25,1.18-0.25,1.65c0,0.45,0.1,0.82,0.31,1.09s0.5,0.41,0.87,0.41c0.47,0,0.95-0.16,1.43-0.49
			c0.48-0.32,0.95-0.75,1.4-1.27c0.45-0.52,0.87-1.11,1.27-1.77c0.39-0.66,0.74-1.32,1.03-1.99c0.29-0.67,0.52-1.32,0.69-1.96
			c0.17-0.64,0.25-1.18,0.25-1.63c0-0.45-0.1-0.82-0.31-1.09c-0.21-0.27-0.5-0.41-0.87-0.41
			C129.67,332.76,129.19,332.92,128.71,333.25z"/>
		<path d="M133.52,343.37c2.02-3.42,4.03-6.82,6.02-10.22c1.99-3.4,4-6.82,6.02-10.28l4.24-0.29c-1.65,2.77-3.29,5.51-4.93,8.22
			c-1.64,2.71-3.3,5.37-4.99,7.98l0.06,0.06c0.53-0.65,1.11-1.35,1.72-2.1c0.62-0.76,1.27-1.45,1.96-2.09
			c0.69-0.64,1.41-1.17,2.18-1.59c0.77-0.42,1.57-0.63,2.42-0.63c0.33,0,0.66,0.04,0.97,0.1c0.31,0.07,0.59,0.19,0.82,0.35
			c0.24,0.17,0.43,0.38,0.57,0.63c0.15,0.26,0.22,0.57,0.22,0.94c0,0.65-0.24,1.17-0.71,1.58c-0.47,0.4-1.03,0.72-1.66,0.94
			c-0.64,0.23-1.29,0.39-1.96,0.49c-0.67,0.1-1.2,0.17-1.59,0.21v0.06c0.29,0.12,0.59,0.24,0.88,0.35c0.29,0.12,0.56,0.26,0.8,0.43
			c0.24,0.17,0.43,0.37,0.59,0.62c0.16,0.24,0.24,0.54,0.24,0.9c0,0.2-0.03,0.4-0.1,0.62c-0.07,0.22-0.15,0.43-0.24,0.63
			c-0.09,0.21-0.17,0.41-0.24,0.6c-0.07,0.2-0.1,0.37-0.1,0.53c0,0.37,0.17,0.56,0.5,0.56c0.33,0,0.72-0.13,1.15-0.4
			c0.43-0.27,0.89-0.61,1.38-1.03c0.49-0.42,0.99-0.9,1.49-1.43c0.5-0.53,0.98-1.07,1.43-1.62c0.45-0.55,0.86-1.07,1.24-1.58
			c0.37-0.5,0.68-0.93,0.91-1.28l0.26,0.12c-0.47,0.69-1.06,1.49-1.77,2.4c-0.71,0.91-1.49,1.8-2.36,2.67
			c-0.59,0.59-1.12,1.07-1.59,1.44c-0.47,0.37-0.92,0.67-1.36,0.88c-0.43,0.22-0.85,0.37-1.25,0.46c-0.4,0.09-0.82,0.13-1.25,0.13
			c-0.83,0-1.5-0.18-2.02-0.53c-0.52-0.35-0.78-0.89-0.78-1.62c0-0.41,0.07-0.77,0.22-1.08c0.15-0.3,0.31-0.59,0.49-0.87
			c0.18-0.27,0.34-0.55,0.49-0.84c0.15-0.28,0.22-0.6,0.22-0.96c-0.26,0.1-0.52,0.19-0.8,0.27c-0.28,0.08-0.55,0.12-0.82,0.12
			c-0.14,0-0.26-0.03-0.35-0.09c-0.1-0.06-0.15-0.17-0.15-0.32c0-0.31,0.24-0.47,0.71-0.47c0.31,0,0.59,0.03,0.82,0.08
			c0.24,0.05,0.44,0.07,0.62,0.07c0.29,0,0.59-0.09,0.9-0.28c0.3-0.19,0.59-0.42,0.85-0.71c0.27-0.28,0.48-0.6,0.65-0.96
			s0.25-0.7,0.25-1.03c0-0.23-0.07-0.44-0.21-0.6c-0.14-0.17-0.33-0.25-0.59-0.25c-0.35,0-0.78,0.18-1.28,0.53
			c-0.5,0.35-1.03,0.82-1.59,1.39c-0.56,0.57-1.12,1.21-1.69,1.91c-0.57,0.71-1.1,1.41-1.61,2.12c-0.5,0.71-0.95,1.38-1.34,2.02
			c-0.39,0.64-0.7,1.16-0.91,1.58L133.52,343.37z"/>
		<path d="M176.47,325.19c-0.18,0.18-0.37,0.44-0.59,0.8c-0.22,0.35-0.32,0.81-0.32,1.36c0,0.73,0.23,1.32,0.68,1.77
			c0.45,0.45,1.01,0.68,1.68,0.68c0.63,0,1.21-0.17,1.74-0.52c0.53-0.34,0.99-0.78,1.37-1.31c0.38-0.53,0.68-1.11,0.88-1.74
			c0.21-0.63,0.31-1.22,0.31-1.77c0-0.73-0.2-1.24-0.6-1.55c-0.4-0.3-0.95-0.46-1.63-0.46c-1.04,0-2.11,0.22-3.2,0.66
			c-1.09,0.44-2.14,1.05-3.15,1.81c-1.01,0.77-1.96,1.66-2.86,2.69c-0.89,1.03-1.67,2.15-2.33,3.34c-0.66,1.2-1.18,2.44-1.56,3.73
			c-0.38,1.29-0.57,2.57-0.57,3.84c0,0.63,0.08,1.23,0.25,1.8c0.17,0.57,0.41,1.07,0.72,1.5c0.31,0.43,0.68,0.78,1.1,1.03
			c0.42,0.25,0.89,0.38,1.4,0.38c0.77,0,1.51-0.18,2.22-0.54c0.72-0.36,1.36-0.84,1.93-1.43c0.57-0.59,1.03-1.27,1.37-2.03
			c0.34-0.77,0.51-1.56,0.51-2.39c0-0.43-0.04-0.85-0.13-1.25c-0.09-0.4-0.23-0.76-0.41-1.06c-0.19-0.31-0.42-0.55-0.71-0.74
			s-0.63-0.28-1.05-0.28c-0.79,0-1.43,0.26-1.92,0.78c-0.49,0.52-0.87,1.13-1.13,1.81c-0.27,0.69-0.45,1.36-0.54,2
			c-0.1,0.65-0.15,1.11-0.15,1.38h-0.35c0-0.77,0.1-1.56,0.31-2.39c0.21-0.82,0.53-1.59,0.97-2.28c0.44-0.7,1.01-1.27,1.71-1.71
			c0.7-0.44,1.53-0.66,2.49-0.66c0.53,0,1.02,0.09,1.47,0.27c0.45,0.18,0.85,0.43,1.18,0.75c0.33,0.32,0.6,0.71,0.79,1.15
			c0.2,0.44,0.3,0.93,0.3,1.46c0,0.94-0.27,1.88-0.81,2.81c-0.54,0.93-1.26,1.76-2.15,2.49c-0.89,0.73-1.92,1.32-3.08,1.77
			c-1.16,0.45-2.36,0.68-3.59,0.68c-2.36,0-4.08-0.58-5.18-1.72c-1.1-1.15-1.65-2.77-1.65-4.88c0-1.22,0.27-2.44,0.82-3.67
			c0.55-1.23,1.28-2.4,2.2-3.52c0.91-1.12,1.96-2.17,3.15-3.14c1.19-0.97,2.43-1.82,3.73-2.53c1.3-0.72,2.59-1.28,3.89-1.68
			c1.3-0.4,2.5-0.6,3.62-0.6c0.59,0,1.18,0.04,1.77,0.13c0.59,0.09,1.11,0.26,1.56,0.5c0.45,0.25,0.82,0.59,1.11,1.03
			c0.28,0.44,0.43,1.01,0.43,1.72c0,0.61-0.15,1.2-0.46,1.78c-0.31,0.58-0.72,1.09-1.25,1.53c-0.53,0.44-1.14,0.8-1.84,1.06
			c-0.7,0.27-1.44,0.4-2.22,0.4c-0.45,0-0.89-0.05-1.31-0.16c-0.42-0.11-0.8-0.28-1.12-0.51c-0.32-0.24-0.58-0.54-0.77-0.9
			c-0.19-0.36-0.28-0.8-0.28-1.31c0-0.39,0.08-0.79,0.25-1.21c0.17-0.41,0.43-0.8,0.78-1.15L176.47,325.19z"/>
		<path d="M193.26,322.57c-1.96,3.26-3.64,6.02-5.04,8.28c-1.4,2.26-2.54,4.15-3.43,5.67c-0.89,1.52-1.55,2.73-1.97,3.62
			c-0.42,0.89-0.63,1.6-0.63,2.14c0,0.22,0.06,0.38,0.19,0.5c0.13,0.12,0.27,0.18,0.43,0.18c0.45,0,1.02-0.25,1.71-0.75
			c0.69-0.5,1.4-1.12,2.14-1.87c0.74-0.75,1.45-1.55,2.14-2.4c0.69-0.85,1.26-1.63,1.71-2.34l0.24,0.12c-0.14,0.2-0.36,0.53-0.68,1
			c-0.31,0.47-0.71,1.01-1.18,1.61c-0.47,0.6-1,1.21-1.58,1.84c-0.58,0.63-1.19,1.21-1.83,1.74c-0.64,0.53-1.3,0.97-1.97,1.31
			c-0.68,0.34-1.35,0.51-2.02,0.51c-0.82,0-1.44-0.21-1.86-0.62c-0.41-0.41-0.62-0.93-0.62-1.56c0-0.43,0.07-0.89,0.21-1.37
			c0.14-0.48,0.36-1.05,0.66-1.71c0.3-0.66,0.71-1.43,1.21-2.33c0.5-0.89,1.12-1.96,1.86-3.2c0.74-1.24,1.6-2.68,2.59-4.33
			c0.99-1.65,2.13-3.57,3.4-5.75L193.26,322.57z"/>
		<path d="M194.5,332.53l-1.03,1.59c-0.94,1.41-1.7,2.57-2.27,3.46c-0.57,0.89-1.01,1.62-1.32,2.18c-0.31,0.56-0.52,0.99-0.62,1.3
			c-0.1,0.31-0.15,0.58-0.15,0.81c0,0.26,0.07,0.46,0.22,0.62c0.15,0.16,0.34,0.23,0.57,0.23c0.39,0,0.9-0.22,1.52-0.66
			c0.62-0.44,1.3-1.09,2.03-1.93c0.74-0.84,1.52-1.87,2.34-3.09c0.82-1.22,1.64-2.6,2.45-4.15l4.27-0.12
			c-0.18,0.3-0.43,0.69-0.75,1.18c-0.32,0.49-0.69,1.03-1.09,1.6c-0.4,0.58-0.82,1.19-1.24,1.84c-0.42,0.65-0.81,1.27-1.15,1.87
			s-0.62,1.16-0.84,1.68c-0.22,0.52-0.32,0.95-0.32,1.28c0,0.27,0.06,0.47,0.18,0.58c0.12,0.11,0.27,0.16,0.47,0.16
			c0.33,0,0.72-0.14,1.16-0.41c0.44-0.27,0.91-0.63,1.41-1.08c0.5-0.44,1.01-0.94,1.53-1.49c0.52-0.55,1.01-1.1,1.47-1.65
			c0.46-0.55,0.89-1.07,1.28-1.56c0.39-0.49,0.71-0.89,0.94-1.21l0.27,0.23c-0.33,0.39-0.72,0.86-1.15,1.4
			c-0.43,0.54-0.9,1.11-1.4,1.69c-0.5,0.59-1.03,1.17-1.59,1.75c-0.56,0.58-1.13,1.09-1.72,1.55c-0.59,0.45-1.18,0.82-1.78,1.1
			c-0.6,0.28-1.19,0.43-1.78,0.43c-0.43,0-0.81-0.07-1.12-0.21c-0.31-0.14-0.57-0.32-0.77-0.56c-0.2-0.24-0.34-0.51-0.44-0.81
			c-0.1-0.3-0.15-0.61-0.15-0.93c0-0.23,0.03-0.47,0.09-0.71c0.06-0.23,0.12-0.43,0.18-0.59l-0.06-0.06
			c-0.43,0.49-0.87,0.97-1.33,1.43c-0.45,0.46-0.92,0.87-1.41,1.24c-0.49,0.36-0.99,0.65-1.5,0.87c-0.51,0.22-1.03,0.32-1.56,0.32
			c-0.82,0-1.43-0.24-1.83-0.72c-0.39-0.48-0.59-1.09-0.59-1.84c0-0.39,0.09-0.84,0.27-1.34c0.18-0.5,0.4-1.03,0.68-1.58
			s0.58-1.11,0.93-1.68c0.34-0.57,0.67-1.1,0.99-1.6c0.31-0.5,0.6-0.95,0.87-1.36s0.47-0.72,0.6-0.96L194.5,332.53z"/>
		<path d="M215.96,336.6c0.02-0.11,0.05-0.23,0.08-0.34c-0.01-0.01-0.03-0.02-0.04-0.03c0.08-0.29,0.13-0.58,0.16-0.85
			c0.03-0.27,0.04-0.5,0.04-0.68c0-0.75-0.17-1.32-0.52-1.71c-0.34-0.39-0.8-0.59-1.37-0.59c-0.63,0-1.11,0.22-1.44,0.66
			c-0.33,0.44-0.5,0.92-0.5,1.43c0,0.2,0.02,0.38,0.06,0.54c0.04,0.17,0.08,0.33,0.12,0.49c-0.18,0.77-0.48,1.6-0.9,2.5
			c-0.42,0.9-0.92,1.75-1.5,2.55c-0.58,0.8-1.22,1.46-1.91,1.99c-0.7,0.53-1.41,0.8-2.14,0.8c-0.71,0-1.09-0.36-1.15-1.09
			c-0.02-0.29,0.02-0.63,0.12-1.02c0.1-0.38,0.3-0.87,0.6-1.47c0.31-0.6,0.72-1.36,1.24-2.27c0.52-0.91,1.2-2.05,2.03-3.4
			c0.84-1.36,1.83-2.98,2.99-4.87c1.16-1.9,2.52-4.12,4.09-6.67l-4.3,0.29c-1.28,2.06-2.4,3.87-3.37,5.44
			c-0.97,1.56-1.81,2.92-2.52,4.07c-0.71,1.15-1.3,2.13-1.78,2.93c-0.48,0.81-0.86,1.49-1.15,2.06c-0.28,0.57-0.49,1.06-0.6,1.46
			c-0.12,0.4-0.18,0.77-0.18,1.1c0,1.2,0.36,2.13,1.09,2.8c0.73,0.67,1.72,1,2.98,1c1.06,0,2.11-0.18,3.14-0.53
			c1.03-0.35,1.98-0.85,2.86-1.49c0.87-0.64,1.64-1.4,2.3-2.27c0.66-0.87,1.14-1.82,1.46-2.84
			C215.95,336.59,215.95,336.6,215.96,336.6z"/>
	</g>
</g>
<circle cx="146.89" cy="102.71" r="102.71"/>
<path class="st1" d="M191.89,83.03c-1.31-8.18-1.34-7.77-4.75-15.59c0,0,16.13-30.67-42.61-24.52c-6.09,0.64-17.35,6.67-20.97,12.01
	c-0.91,1.34-3.58,4.79-4.07,8.06c-0.58,3.86,0.04,6.09,0.49,9.93c0.23,1.94,0.08,3.12-1.86,3.33c-0.89,0.1-5.43-1.51-7.78-1.26
	c-8.36,0.87-10.62,12.77-9,18.18c2.24,7.5,5.58,13.43,14.24,16.16c5.07,1.6,7.93-2.62,9.91-2.76c1.16,0.18,2.56,1.75,3.99,3.39
	c2.29,2.51,7.28,7.57,7,10.96c-0.16,1.96-2.44,20.78-9.51,30.41c0,0,11.9-2.28,27.09,27.1c0,0,2.44-52.34,16.19-44.53
	c0,0,12.01,6.63,12.41-2.39c0.05-1.17-0.35-4.14,1.98-4.26c0,0,3.06-0.27,0.47-2.9c-0.27-0.27-0.7-1.42,0.14-1.52
	c0.94-0.12,3.89,0.3,2.43-2.91c0,0-0.75-2.87,1.42-3.25c0,0,0.01,0,0.01,0c2.19-0.37,3.8-1.22,4.25-2.24
	c0.45-1.03-0.19-2.21-1.78-4.14c0,0-3.11-4.38-3.74-6.04c-0.18-0.48-0.16-0.4-0.1-1.51c2.14-0.45,3.09-1.56,3.09-1.56
	c-1.25,0.53-2.36,0.14-2.99,0.06c0.19-1.05,0.64-2.08,1.63-2.53c0.93-0.43,1.37-0.66,1.87-3.63c0,0,1.77-3.73,0.61-11.56
	C191.94,83.35,191.91,83.19,191.89,83.03z"/>
</svg>
